<svg xmlns="http://www.w3.org/2000/svg" xmlns:xlink="http://www.w3.org/1999/xlink" width="744.237" height="376.138" viewBox="0 0 744.237 376.138">
  <defs>
    <linearGradient id="linear-gradient" x1="0.519" y1="1" x2="0.519" gradientUnits="objectBoundingBox">
      <stop offset="0" stop-color="#3c77d8"/>
      <stop offset="1" stop-color="#161616"/>
    </linearGradient>
  </defs>
  <g id="Path_1" data-name="Path 1" fill="url(#linear-gradient)">
    <path d="M 743.7365112304688 371.6183776855469 L 372.118408203125 371.6183776855469 L 0.5003864169120789 371.6183776855469 C 0.5171034932136536 359.1056213378906 1.162296175956726 346.4936828613281 2.418680906295776 334.1219177246094 C 3.673408269882202 321.7672729492188 5.568044662475586 309.3529968261719 8.050045013427734 297.2238159179688 C 12.93240833282471 273.364013671875 20.21767997741699 249.8947296142578 29.70349884033203 227.4679107666016 C 39.01704406738281 205.4480895996094 50.54477310180664 184.2099151611328 63.96631622314453 164.3433685302734 C 77.260498046875 144.6654663085938 92.5279541015625 126.1610946655273 109.3445892333984 109.3445510864258 C 126.1611328125 92.52791595458984 144.6654968261719 77.26045989990234 164.3434143066406 63.96627807617188 C 184.2099609375 50.54473114013672 205.4481353759766 39.01700592041016 227.4679565429688 29.70346069335938 C 249.894775390625 20.21764183044434 273.3640441894531 12.93236923217773 297.223876953125 8.050005912780762 C 309.3530578613281 5.568005561828613 321.7673034667969 3.673369407653809 334.1219482421875 2.418642044067383 C 346.6582336425781 1.145551204681396 359.4420471191406 0.5000057220458984 372.118408203125 0.5000057220458984 C 384.7947692871094 0.5000057220458984 397.5786743164063 1.145551204681396 410.1148681640625 2.418642044067383 C 422.4695129394531 3.673369407653809 434.8838500976563 5.568005561828613 447.0130310058594 8.050005912780762 C 470.8728637695313 12.93236923217773 494.3421325683594 20.21764183044434 516.7689819335938 29.70346069335938 C 538.7887573242188 39.01700592041016 560.02685546875 50.54473114013672 579.8934936523438 63.96627807617188 C 599.5714111328125 77.26045989990234 618.07568359375 92.52791595458984 634.892333984375 109.3445510864258 C 651.7089233398438 126.1610946655273 666.9763793945313 144.6654663085938 680.2705688476563 164.3433685302734 C 693.692138671875 184.2099151611328 705.2198486328125 205.4480895996094 714.5333862304688 227.4679107666016 C 724.0192260742188 249.8947296142578 731.3045043945313 273.364013671875 736.1868896484375 297.2238159179688 C 738.6688842773438 309.3529968261719 740.5634765625 321.7672729492188 741.8182373046875 334.1219177246094 C 743.0745849609375 346.4936828613281 743.7197875976563 359.1056213378906 743.7365112304688 371.6183776855469 Z" stroke="none"/>
    <path d="M 372.118408203125 1 C 359.4588623046875 1 346.6919555664063 1.6446533203125 334.1724853515625 2.916107177734375 C 321.8345031738281 4.169097900390625 309.4368591308594 6.061187744140625 297.3240356445313 8.539825439453125 C 273.49658203125 13.4156494140625 250.0591430664063 20.69100952148438 227.6626586914063 30.16390991210938 C 205.672607421875 39.46490478515625 184.4630737304688 50.97711181640625 164.6232299804688 64.38064575195313 C 144.9716796875 77.65692138671875 126.4921264648438 92.90390014648438 109.6980590820313 109.6980895996094 C 92.90386962890625 126.4921875 77.656982421875 144.9717254638672 64.380615234375 164.6232757568359 C 50.97705078125 184.4630889892578 39.46484375 205.6726379394531 30.16387939453125 227.6626434326172 C 20.69097900390625 250.0590972900391 13.41558837890625 273.4965515136719 8.539794921875 297.3240051269531 C 6.0611572265625 309.4368286132813 4.1690673828125 321.83447265625 2.916015625 334.1724548339844 C 1.67803955078125 346.3625793457031 1.0343017578125 358.7865905761719 1.00128173828125 371.1183776855469 L 372.118408203125 371.1183776855469 L 743.2354125976563 371.1183776855469 C 743.202392578125 358.7865905761719 742.5587158203125 346.3625793457031 741.3206787109375 334.1724548339844 C 740.0676879882813 321.83447265625 738.1755981445313 309.4368286132813 735.6969604492188 297.3240051269531 C 730.8211059570313 273.4965515136719 723.5457763671875 250.0590972900391 714.0728759765625 227.6626434326172 C 704.7718505859375 205.6726379394531 693.2597045898438 184.4630889892578 679.8561401367188 164.6232757568359 C 666.579833984375 144.9717254638672 651.3328857421875 126.4921875 634.5386962890625 109.6980895996094 C 617.7445678710938 92.90390014648438 599.2650146484375 77.65692138671875 579.613525390625 64.38064575195313 C 559.773681640625 50.97711181640625 538.5641479492188 39.46490478515625 516.5741577148438 30.16390991210938 C 494.1776733398438 20.69100952148438 470.740234375 13.4156494140625 446.9127807617188 8.539825439453125 C 434.7999572753906 6.061187744140625 422.4023132324219 4.169097900390625 410.0643310546875 2.916107177734375 C 397.5448608398438 1.6446533203125 384.7779541015625 1 372.118408203125 1 M 372.118408203125 0 C 577.6336669921875 0 744.2367553710938 166.6031036376953 744.2367553710938 372.1183776855469 C 744.2367553710938 372.1183776855469 549.9910278320313 372.1183776855469 372.118408203125 372.1183776855469 C 191.08447265625 372.1183776855469 -6.103515625e-05 372.1183776855469 -6.103515625e-05 372.1183776855469 L -6.103515625e-05 374.5853881835938 C -6.103515625e-05 374.5853881835938 -6.103515625e-05 373.9688720703125 -6.103515625e-05 372.1183776855469 C -6.103515625e-05 166.6031036376953 166.60302734375 0 372.118408203125 0 Z M 744.2367553710938 372.1183776855469 C 744.2367553710938 375.1324157714844 744.2367553710938 376.1373596191406 744.2367553710938 376.1373596191406 L 744.2367553710938 372.1183776855469 Z" stroke="none" fill="#707070"/>
  </g>
</svg>
