<?xml version="1.0" standalone="no"?>
<!DOCTYPE svg PUBLIC "-//W3C//DTD SVG 20010904//EN"
 "http://www.w3.org/TR/2001/REC-SVG-20010904/DTD/svg10.dtd">
<svg version="1.0" xmlns="http://www.w3.org/2000/svg"
 width="512.000000pt" height="512.000000pt" viewBox="0 0 512.000000 512.000000"
 preserveAspectRatio="xMidYMid meet">
<metadata>
Created by potrace 1.14, written by Peter Selinger 2001-2017
</metadata>
<g transform="translate(0.000000,512.000000) scale(0.100000,-0.100000)"
fill="#000000" stroke="none">
<path d="M1150 4758 c0 -90 -3 -234 -7 -320 l-6 -158 -32 0 c-103 0 -211 -84
-242 -189 l-18 -61 -102 0 -102 0 -3 -47 -3 -48 -207 -3 -208 -2 0 -55 0 -55
315 0 315 0 0 -160 0 -160 -105 0 -105 0 0 -55 0 -55 -210 0 -210 0 0 -50 0
-50 315 0 315 0 0 -165 0 -165 -105 0 -105 0 0 -50 0 -50 -210 0 -210 0 0 -60
0 -60 315 0 315 0 0 -155 0 -155 -104 0 -105 0 -3 -52 -3 -53 -208 -3 -207 -2
0 -55 0 -55 315 0 315 0 0 -160 0 -160 -104 0 -105 0 -3 -53 -3 -52 -207 -3
-208 -2 0 -50 0 -50 315 0 315 0 0 -165 0 -165 -105 0 -105 0 0 -50 0 -50
-210 0 -210 0 0 -55 0 -55 158 0 c86 0 228 -3 315 -7 l157 -6 0 -27 c0 -95 85
-205 184 -236 l56 -18 0 -102 0 -103 53 -3 52 -3 3 -217 2 -218 50 0 50 0 0
325 0 325 165 0 165 0 0 -105 0 -105 50 0 50 0 2 -217 3 -218 53 -3 52 -3 0
168 c0 92 3 239 7 326 l6 157 154 0 153 0 0 -105 0 -105 50 0 50 0 2 -218 3
-217 55 0 55 0 3 322 2 323 155 0 155 0 0 -104 0 -105 53 -3 52 -3 3 -218 2
-218 53 3 52 3 3 322 2 323 160 0 160 0 0 -104 0 -105 53 -3 52 -3 3 -217 2
-218 50 0 50 0 0 325 0 325 160 0 160 0 0 -105 0 -105 55 0 55 0 2 -217 3
-218 48 -3 47 -3 0 168 c0 92 3 239 7 326 l6 157 27 0 c105 0 214 81 246 184
l18 56 107 0 108 0 3 52 3 53 218 3 217 2 0 50 0 50 -330 0 -330 0 0 165 0
165 110 0 110 0 0 50 0 50 220 0 220 0 0 50 0 50 -330 0 -330 0 0 165 0 165
110 0 110 0 0 50 0 50 218 2 217 3 0 55 0 55 -327 3 -328 2 0 155 0 155 110 0
109 0 3 58 3 57 218 3 218 2 -3 48 -3 47 -327 3 -328 2 0 165 0 165 109 0 110
0 3 48 3 47 218 3 217 2 0 55 0 55 -330 0 -330 0 0 160 0 160 110 0 110 0 0
50 0 50 220 0 220 0 0 55 0 55 -163 0 c-90 0 -239 3 -330 7 l-167 6 0 32 c0
103 -84 211 -189 242 l-61 18 0 102 0 102 -47 3 -48 3 -3 213 -2 212 -50 0
-50 0 0 -320 0 -320 -165 0 -165 0 0 105 0 105 -50 0 -50 0 -2 213 -3 212 -52
3 -53 3 0 -163 c0 -90 -3 -234 -7 -320 l-6 -158 -154 0 -153 0 0 105 0 105
-50 0 -50 0 -2 213 -3 212 -55 0 -55 0 -3 -317 -2 -318 -155 0 -155 0 0 105 0
104 -57 3 -58 3 -3 213 -2 213 -48 -3 -47 -3 -3 -317 -2 -318 -160 0 -160 0 0
104 0 105 -52 3 -53 3 -3 213 -2 212 -50 0 -50 0 0 -320 0 -320 -160 0 -160 0
0 105 0 105 -55 0 -55 0 -2 213 -3 212 -47 3 -48 3 0 -163z m574 -1139 c95
-65 107 -190 27 -270 -87 -88 -227 -65 -280 44 -25 51 -27 94 -6 144 21 50 42
72 90 95 52 25 122 19 169 -13z m-164 -1489 l0 -40 -80 0 -80 0 0 40 0 40 80
0 80 0 0 -40z m240 0 l0 -40 -80 0 -80 0 0 40 0 40 80 0 80 0 0 -40z m240 0
l0 -40 -80 0 -80 0 0 40 0 40 80 0 80 0 0 -40z m250 0 l0 -40 -85 0 -85 0 0
40 0 40 85 0 85 0 0 -40z m230 0 l0 -40 -80 0 -80 0 0 40 0 40 80 0 80 0 0
-40z m210 0 l0 -40 -65 0 -65 0 0 40 0 40 65 0 65 0 0 -40z m-520 -265 l0 -45
-400 0 -400 0 0 38 c0 21 3 42 7 45 3 4 183 7 400 7 l393 0 0 -45z m880 0 l0
-45 -400 0 -400 0 0 38 c0 21 3 42 7 45 3 4 183 7 400 7 l393 0 0 -45z m-1290
-270 l0 -45 -197 2 -198 3 -3 43 -3 42 200 0 201 0 0 -45z m320 0 l0 -45 -40
0 -40 0 0 45 0 45 40 0 40 0 0 -45z m165 0 l0 -40 -40 0 -40 0 -3 43 -3 43 43
-3 43 -3 0 -40z m643 3 l-3 -43 -202 -3 -203 -2 0 45 0 45 206 0 205 0 -3 -42z
m320 0 c-3 -43 -3 -43 -43 -43 -40 0 -40 0 -43 43 l-3 42 46 0 46 0 -3 -42z"/>
</g>
</svg>
