<svg xmlns="http://www.w3.org/2000/svg" xmlns:xlink="http://www.w3.org/1999/xlink" width="629.656" height="560.458" viewBox="0 0 629.656 560.458">
  <defs>
    <filter id="Path_1318" x="0" y="96.42" width="206.643" height="220.56" filterUnits="userSpaceOnUse">
      <feOffset input="SourceAlpha"/>
      <feGaussianBlur stdDeviation="1" result="blur"/>
      <feFlood flood-color="red"/>
      <feComposite operator="in" in2="blur"/>
      <feComposite in="SourceGraphic"/>
    </filter>
    <filter id="Path_1363" x="162.632" y="301.988" width="145.39" height="258.47" filterUnits="userSpaceOnUse">
      <feOffset input="SourceAlpha"/>
      <feGaussianBlur stdDeviation="1" result="blur-2"/>
      <feFlood flood-color="red"/>
      <feComposite operator="in" in2="blur-2"/>
      <feComposite in="SourceGraphic"/>
    </filter>
    <filter id="Path_1426" x="319.819" y="301.444" width="146.622" height="258.085" filterUnits="userSpaceOnUse">
      <feOffset input="SourceAlpha"/>
      <feGaussianBlur stdDeviation="1" result="blur-3"/>
      <feFlood flood-color="red"/>
      <feComposite operator="in" in2="blur-3"/>
      <feComposite in="SourceGraphic"/>
    </filter>
    <filter id="Path_1431" x="319.102" y="0" width="262.984" height="171.186" filterUnits="userSpaceOnUse">
      <feOffset input="SourceAlpha"/>
      <feGaussianBlur stdDeviation="1" result="blur-4"/>
      <feFlood flood-color="red"/>
      <feComposite operator="in" in2="blur-4"/>
      <feComposite in="SourceGraphic"/>
    </filter>
    <filter id="Path_2081" x="45.33" y="1.178" width="262.301" height="167.997" filterUnits="userSpaceOnUse">
      <feOffset input="SourceAlpha"/>
      <feGaussianBlur stdDeviation="1" result="blur-5"/>
      <feFlood flood-color="red"/>
      <feComposite operator="in" in2="blur-5"/>
      <feComposite in="SourceGraphic"/>
    </filter>
    <filter id="Path_1434" x="420.756" y="92.746" width="208.9" height="223.844" filterUnits="userSpaceOnUse">
      <feOffset input="SourceAlpha"/>
      <feGaussianBlur stdDeviation="1" result="blur-6"/>
      <feFlood flood-color="red"/>
      <feComposite operator="in" in2="blur-6"/>
      <feComposite in="SourceGraphic"/>
    </filter>
  </defs>
  <g id="Group_4" data-name="Group 4" transform="translate(-219.068 1320.84)">
    <g id="Group_1075" data-name="Group 1075" transform="translate(110.75 -1320.11)">
      <g transform="matrix(1, 0, 0, 1, 108.32, -0.73)" filter="url(#Path_1318)">
        <path id="Path_1318-2" data-name="Path 1318" d="M309.99,182.9a144.044,144.044,0,0,0-8.94,26.71,119.389,119.389,0,0,0-.08,52.84,142.735,142.735,0,0,0,8.83,26.6c-.91.57-1.8,1.09-2.67,1.58s-1.74.96-2.59,1.4-1.7.86-2.54,1.27-1.67.81-2.51,1.2c-3.08,1.47-6.11,2.92-9.12,4.35s-5.98,2.85-8.95,4.25-5.91,2.8-8.87,4.18-5.9,2.76-8.87,4.13a2.748,2.748,0,0,1-.4.15c-.14.04-.29.08-.44.11a3.549,3.549,0,0,1-.47.06c-.16.01-.32.02-.49.02a6.819,6.819,0,0,1-1-.07,8.414,8.414,0,0,1-1-.2,8.8,8.8,0,0,1-.95-.31,6.52,6.52,0,0,1-.84-.4c-3.05-1.72-6.23-3.52-9.5-5.38s-6.64-3.79-10.07-5.76-6.9-3.99-10.38-6.04-6.99-4.12-10.46-6.21a8.225,8.225,0,0,1-1.57-1.24,11.724,11.724,0,0,1-1.35-1.62,10.425,10.425,0,0,1-1-1.81,7.32,7.32,0,0,1-.52-1.81c-.4-2.99-.79-6.03-1.16-9.14s-.75-6.28-1.11-9.56-.72-6.66-1.07-10.16-.7-7.14-1.06-10.94a17.1,17.1,0,0,0-.3-2.1,9.062,9.062,0,0,0-.54-1.76,6.6,6.6,0,0,0-.93-1.53,8.226,8.226,0,0,0-1.47-1.39q-5.685-4.335-11.4-8.72-5.715-4.365-11.41-8.75-5.7-4.365-11.35-8.72-5.655-4.335-11.22-8.63-5.415-4.17-10.92-8.4t-11.04-8.48q-5.535-4.245-11.08-8.51l-11.07-8.47a12.611,12.611,0,0,1-1.77-1.58,6.193,6.193,0,0,1-1.14-1.75,5.241,5.241,0,0,1-.38-2.1,8.657,8.657,0,0,1,.52-2.62c1.01-2.93,2.03-5.88,3.04-8.82s2.02-5.9,3.02-8.85,2-5.89,3-8.82,1.98-5.84,2.96-8.73c.53-1.56,1.06-3.13,1.59-4.69s1.06-3.12,1.59-4.69l1.59-4.68,1.59-4.68a4.217,4.217,0,0,1,.18-.45c.07-.15.14-.29.22-.44s.17-.3.27-.45.2-.32.3-.49c.05-.09.11-.17.17-.27s.12-.19.18-.29.12-.2.19-.31.13-.22.2-.33l53.47,24.57ZM299.07,293.6c.8-.38,1.59-.76,2.39-1.14s1.6-.76,2.4-1.15,1.61-.77,2.41-1.15,1.61-.77,2.42-1.15a144.537,144.537,0,0,1-8.75-26.57,120.146,120.146,0,0,1-.01-52.61,142.712,142.712,0,0,1,8.74-26.43L134.04,101.5c-.04.08-.09.15-.13.22s-.09.14-.13.21a1.374,1.374,0,0,1-.13.2c-.04.07-.08.13-.12.2-.1.15-.19.3-.28.44s-.17.28-.24.41-.14.26-.2.39a2.989,2.989,0,0,0-.15.38l-1.59,4.68q-.795,2.34-1.59,4.69t-1.59,4.69c-.53,1.56-1.06,3.13-1.59,4.69-.98,2.89-1.96,5.8-2.96,8.73s-1.99,5.87-3,8.82-2.01,5.9-3.02,8.85-2.02,5.9-3.04,8.83a7.84,7.84,0,0,0-.46,2.04,4.3,4.3,0,0,0,.21,1.73,5.038,5.038,0,0,0,.94,1.58,10.494,10.494,0,0,0,1.73,1.58q5.52,4.215,11.07,8.47l11.09,8.5q5.535,4.245,11.04,8.48l10.92,8.4q5.565,4.29,11.22,8.63t11.35,8.72q5.7,4.365,11.41,8.75,5.7,4.365,11.4,8.72a10.36,10.36,0,0,1,1.65,1.56,7.1,7.1,0,0,1,1.05,1.71,9.565,9.565,0,0,1,.61,1.94,20.349,20.349,0,0,1,.32,2.27c.35,3.79.7,7.42,1.06,10.92s.71,6.88,1.07,10.15.73,6.45,1.11,9.55.77,6.14,1.17,9.13a6,6,0,0,0,.47,1.58,10.429,10.429,0,0,0,2.12,3.08,7.238,7.238,0,0,0,1.38,1.1c3.47,2.09,6.97,4.16,10.45,6.21s6.96,4.06,10.38,6.03,6.79,3.89,10.06,5.76,6.45,3.66,9.5,5.38a5.661,5.661,0,0,0,.74.35,7.469,7.469,0,0,0,.84.27,6.539,6.539,0,0,0,.88.18,6.434,6.434,0,0,0,.86.06c.13,0,.26-.01.38-.02s.24-.03.36-.05a2.658,2.658,0,0,0,.33-.08,2.1,2.1,0,0,0,.3-.11q4.455-2.055,8.87-4.13t8.86-4.18q4.44-2.1,8.95-4.25,4.485-2.13,9.1-4.34" transform="translate(-108.32 0.73)" fill="#3d0600" stroke="#000" stroke-width="3" stroke-dasharray="1600"/>
      </g>
    </g>
    <g id="Group_1103" data-name="Group 1103" transform="translate(110.75 -1320.11)">
      <g transform="matrix(1, 0, 0, 1, 108.32, -0.73)" filter="url(#Path_1363)">
        <path id="Path_1363-2" data-name="Path 1363" d="M411.73,359.43,396.36,555.09c-5.13-.49-10.21-1.1-15.28-1.83s-10.12-1.58-15.17-2.55-10.12-2.07-15.22-3.3-10.23-2.58-15.42-4.07a8.124,8.124,0,0,1-1.83-.75,5.107,5.107,0,0,1-1.33-1.1,5.193,5.193,0,0,1-.87-1.51,8.341,8.341,0,0,1-.47-1.98c-1.02-7.78-2.04-15.52-3.05-23.17s-2.01-15.2-2.99-22.58-1.94-14.6-2.87-21.59-1.83-13.74-2.7-20.19l-.18-1.41q-.435-3.225-.87-6.49t-.91-6.55q-.465-3.285-.96-6.57t-1.03-6.54a3.322,3.322,0,0,0-.37-1.02,6.331,6.331,0,0,0-.7-1.01,11.314,11.314,0,0,0-.89-.94c-.32-.29-.64-.56-.95-.8q-1.92-1.44-3.84-2.86l-3.85-2.85c-1.28-.95-2.57-1.9-3.85-2.84s-2.57-1.89-3.85-2.84c-1.57-1.16-3.15-2.32-4.74-3.5s-3.19-2.36-4.79-3.54l-4.8-3.57c-1.6-1.19-3.19-2.39-4.77-3.58a4.466,4.466,0,0,1-.85-.88,7.1,7.1,0,0,1-.7-1.17,7.607,7.607,0,0,1-.48-1.31,6.006,6.006,0,0,1-.19-1.29q-.06-5.6-.09-11.38t-.05-11.8q-.015-6.015,0-12.31c.01-4.2.02-8.49.04-12.9a6.523,6.523,0,0,1,.12-1.21,7.983,7.983,0,0,1,.34-1.25,5.582,5.582,0,0,1,.56-1.12,3.158,3.158,0,0,1,.76-.82q4.155-2.955,8.31-5.88t8.33-5.85c2.79-1.95,5.59-3.91,8.43-5.89s5.7-3.97,8.6-5.99l8.86-6.18q4.335,5.97,8.96,11.21a129.436,129.436,0,0,0,9.62,9.81,121.178,121.178,0,0,0,10.38,8.51A123.485,123.485,0,0,0,371.9,349.2a122.119,122.119,0,0,0,12.53,4.7,127.148,127.148,0,0,0,13.25,3.39Q404.49,358.685,411.73,359.43ZM395.45,554l15.7-193.63c-4.82-.51-9.48-1.23-14.02-2.15a132.541,132.541,0,0,1-13.22-3.42,121.821,121.821,0,0,1-12.51-4.71,124.082,124.082,0,0,1-33.48-21.76,129.816,129.816,0,0,1-9.54-9.65q-4.575-5.145-8.8-10.93l-8.06,5.62q-4.35,3.03-8.59,5.98t-8.43,5.88q-4.185,2.925-8.33,5.85c-2.77,1.95-5.53,3.91-8.31,5.88a2.1,2.1,0,0,0-.55.62,4.265,4.265,0,0,0-.43.91,7.242,7.242,0,0,0-.28,1.04,5.254,5.254,0,0,0-.1,1.02q-.03,6.6-.04,12.89c0,4.19-.01,8.29,0,12.3s.02,7.94.05,11.8.05,7.65.09,11.38a4.708,4.708,0,0,0,.16,1.08,6.2,6.2,0,0,0,.4,1.09,6.509,6.509,0,0,0,.57.97,3.4,3.4,0,0,0,.69.72q2.37,1.785,4.77,3.58t4.79,3.56q2.4,1.77,4.78,3.54t4.74,3.5c1.29.95,2.57,1.9,3.86,2.84s2.57,1.9,3.85,2.85,2.57,1.9,3.85,2.85,2.56,1.91,3.84,2.86c.17.13.44.34.76.62a10.7,10.7,0,0,1,1.02,1.01,7.8,7.8,0,0,1,.96,1.3,4.633,4.633,0,0,1,.57,1.48c.36,2.17.7,4.36,1.03,6.55s.65,4.39.96,6.58.61,4.38.91,6.56.58,4.35.87,6.5l.18,1.4c.86,6.46,1.77,13.21,2.7,20.2s1.89,14.2,2.87,21.59,1.98,14.93,2.99,22.58,2.03,15.39,3.05,23.17a7.606,7.606,0,0,0,.39,1.7,4.245,4.245,0,0,0,.72,1.27,3.982,3.982,0,0,0,1.11.91,6.944,6.944,0,0,0,1.57.63q7.7,2.2,15.24,4.02,7.56,1.815,15,3.27,7.455,1.44,14.86,2.52,7.365,1.05,14.79,1.78" transform="translate(-108.32 0.73)" fill="#3d0600" stroke="#000" stroke-width="3" stroke-dasharray="1600"/>
      </g>
    </g>
    <g id="Group_1164" data-name="Group 1164" transform="translate(111.75 -1321.11)">
      <g transform="matrix(1, 0, 0, 1, 107.32, 0.27)" filter="url(#Path_1426)">
        <path id="Path_1426-2" data-name="Path 1426" d="M569.05,340.53c.06,3.63.1,7.33.14,11.13s.06,7.68.07,11.67.01,8.09,0,12.31-.04,8.55-.07,13.02a6.561,6.561,0,0,1-.2,1.42,8.457,8.457,0,0,1-.52,1.43,8,8,0,0,1-.76,1.28,4.731,4.731,0,0,1-.93.96q-3.99,3.03-8.05,6.06t-8.17,6.07q-4.11,3.03-8.26,6.06t-8.33,6.02l-.53.38c-.59.42-1.14.81-1.65,1.22a10.112,10.112,0,0,0-1.38,1.31,6.268,6.268,0,0,0-1.01,1.61,7.436,7.436,0,0,0-.55,2.14q-.825,6.96-1.69,13.94t-1.75,13.96q-.885,6.975-1.79,13.9t-1.79,13.75l-1.37,10.55q-.765,5.895-1.55,11.88c-.52,3.98-1.05,7.99-1.59,12s-1.08,8.03-1.64,12.05-1.12,8.02-1.7,12.01a5.037,5.037,0,0,1-.48,1.45,7.371,7.371,0,0,1-.91,1.41,7,7,0,0,1-1.16,1.15,3.866,3.866,0,0,1-1.25.68q-7.395,2.25-14.87,4.1t-15.11,3.32q-7.635,1.47-15.46,2.57t-15.92,1.83L431.76,359.56a144.661,144.661,0,0,0,27.62-5.64,120.181,120.181,0,0,0,45.92-26.38A143.32,143.32,0,0,0,524,306.6c.72.34,1.39.68,2.03,1.04s1.25.71,1.83,1.06,1.15.72,1.7,1.08,1.09.73,1.63,1.09c1.25.84,2.47,1.67,3.69,2.49s2.42,1.64,3.62,2.45,2.39,1.63,3.59,2.44,2.39,1.63,3.58,2.46l2.15,1.49c1.5,1.03,3.01,2.06,4.52,3.11s3.03,2.1,4.55,3.16,3.03,2.14,4.53,3.23,3,2.18,4.48,3.29a8.539,8.539,0,0,1,1.14,1.06,9.424,9.424,0,0,1,1.01,1.38,8,8,0,0,1,.73,1.54,6.244,6.244,0,0,1,.27,1.56Zm-.89,48.12c.04-4.47.06-8.8.08-13.02s.01-8.31,0-12.3-.03-7.88-.07-11.67-.08-7.5-.13-11.12a4.167,4.167,0,0,0-.26-1.29,7.368,7.368,0,0,0-.64-1.33,8.913,8.913,0,0,0-.88-1.21,7.031,7.031,0,0,0-.98-.93q-2.2-1.65-4.47-3.28-2.25-1.62-4.53-3.22c-1.51-1.06-3.03-2.12-4.54-3.16s-3.02-2.08-4.51-3.11l-2.15-1.49q-1.8-1.23-3.58-2.45t-3.59-2.44q-1.8-1.215-3.62-2.45t-3.7-2.49c-.5-.34-1.01-.68-1.52-1.03s-1.01-.68-1.52-1.03-1.02-.69-1.53-1.03-1.02-.69-1.53-1.04a141.928,141.928,0,0,1-18.66,20.68,125.838,125.838,0,0,1-21.56,15.74,124.234,124.234,0,0,1-24.37,10.74,140.064,140.064,0,0,1-27.1,5.71l16.39,193.68q7.995-.735,15.73-1.83t15.28-2.55q7.545-1.455,14.94-3.29t14.7-4.05a3.3,3.3,0,0,0,.98-.56,6.25,6.25,0,0,0,.95-.97,6.764,6.764,0,0,0,.76-1.18,4.388,4.388,0,0,0,.4-1.17c.58-3.98,1.15-7.99,1.7-12s1.1-8.03,1.64-12.04,1.07-8.02,1.59-12,1.04-7.95,1.55-11.88l1.37-10.54q.885-6.825,1.79-13.75t1.79-13.9q.885-6.975,1.75-13.96c.58-4.65,1.14-9.31,1.69-13.94a8.292,8.292,0,0,1,.64-2.43,7.483,7.483,0,0,1,1.15-1.83,11.355,11.355,0,0,1,1.5-1.44c.54-.44,1.12-.85,1.71-1.27l.53-.39q4.17-3,8.32-6.01t8.26-6.05q4.11-3.03,8.17-6.07t8.05-6.06a3.932,3.932,0,0,0,.77-.8,5.788,5.788,0,0,0,.64-1.09,7.729,7.729,0,0,0,.44-1.22,4.247,4.247,0,0,0,.18-1.19" transform="translate(-107.32 -0.27)" fill="#3d0600" stroke="#000" stroke-width="3" stroke-dasharray="1600"/>
      </g>
    </g>
    <g id="Group_1169" data-name="Group 1169" transform="translate(110.75 -1320.11)">
      <g transform="matrix(1, 0, 0, 1, 108.32, -0.73)" filter="url(#Path_1431)">
        <path id="Path_1431-2" data-name="Path 1431" d="M685.45,52.42,637.54,86.3l-113.5,79.09a148.193,148.193,0,0,0-18.93-21.12,122.979,122.979,0,0,0-21.51-15.81,120.654,120.654,0,0,0-24.26-10.62,140.8,140.8,0,0,0-27.2-5.57c-.08-.66-.13-1.28-.17-1.88s-.05-1.17-.05-1.73.01-1.1.03-1.63.05-1.06.08-1.58c.06-1.14.12-2.3.18-3.46s.13-2.32.2-3.49.14-2.33.22-3.5.16-2.33.26-3.49c.07-.94.15-1.89.23-2.84s.16-1.9.25-2.84.17-1.89.26-2.83.18-1.87.27-2.8c.13-1.39.26-2.79.39-4.19s.26-2.82.38-4.24.24-2.84.34-4.26.2-2.84.28-4.25a14.487,14.487,0,0,1,.27-2.16,8.022,8.022,0,0,1,.67-1.93,6.823,6.823,0,0,1,1.24-1.71,9.394,9.394,0,0,1,1.98-1.49q4.74-2.73,9.54-5.52t9.69-5.66q4.89-2.865,9.9-5.84,5.025-2.97,10.19-6.06a13.135,13.135,0,0,1,1.43-.75,10.186,10.186,0,0,1,1.41-.54,12.146,12.146,0,0,1,1.39-.33,9.168,9.168,0,0,1,1.38-.11,8.934,8.934,0,0,1,1.04.06,9.6,9.6,0,0,1,1.05.18,10.34,10.34,0,0,1,1.05.3c.35.12.71.26,1.06.42.65.29,1.3.59,1.96.88s1.31.59,1.96.88,1.31.59,1.96.88,1.31.59,1.96.89q3.45,1.56,6.94,3.13t7.02,3.14q3.525,1.575,7.07,3.11c2.36,1.03,4.73,2.04,7.09,3.04.31.13.65.25,1,.36a9.641,9.641,0,0,0,1.12.27,11.751,11.751,0,0,0,1.19.17c.4.04.81.06,1.22.06.27,0,.53-.01.79-.03a6.482,6.482,0,0,0,.77-.1c.25-.04.5-.1.74-.16a5.78,5.78,0,0,0,.7-.24q7.425-3.06,14.89-6.15t14.92-6.19q7.455-3.09,14.86-6.18t14.7-6.13q5.79-2.415,11.66-4.86t11.78-4.9q5.91-2.46,11.84-4.92t11.83-4.89a4.2,4.2,0,0,1,.5-.17c.17-.05.37-.09.57-.13a5.976,5.976,0,0,1,.61-.08c.21-.02.42-.03.64-.03a9.111,9.111,0,0,1,1.05.06,6.45,6.45,0,0,1,1.01.2,4.7,4.7,0,0,1,.89.34,2.729,2.729,0,0,1,.69.48q6.135,5.88,11.68,11.63t10.53,11.46q5,5.7,9.45,11.36t8.44,11.34a1.781,1.781,0,0,1,.14.23l.12.24c.04.08.08.17.12.26s.08.19.12.29c.02.05.05.11.07.16s.05.11.08.18.05.12.08.19a2.466,2.466,0,0,0,.11.23ZM524.26,164.01,684.36,52.45c-.08-.18-.14-.34-.2-.47s-.1-.24-.14-.33-.08-.17-.11-.23-.07-.12-.1-.17q-3.96-5.655-8.41-11.3t-9.42-11.32q-4.98-5.685-10.5-11.42-5.535-5.745-11.64-11.6a1.873,1.873,0,0,0-.52-.34,4.04,4.04,0,0,0-.72-.25,5.44,5.44,0,0,0-.84-.15,8.848,8.848,0,0,0-.89-.05c-.17,0-.35.01-.52.02a4.017,4.017,0,0,0-.5.06c-.16.03-.32.06-.47.1a4.128,4.128,0,0,0-.42.14q-5.895,2.445-11.83,4.9t-11.84,4.92q-5.91,2.46-11.78,4.9t-11.65,4.86q-7.3,3.045-14.71,6.12t-14.86,6.18q-7.455,3.09-14.92,6.19t-14.89,6.15q-.375.15-.78.27a7.658,7.658,0,0,1-.83.18c-.28.05-.57.08-.87.11a8.835,8.835,0,0,1-.89.04c-.45,0-.89-.02-1.34-.06a13.105,13.105,0,0,1-1.3-.19,11.444,11.444,0,0,1-1.22-.3,9.916,9.916,0,0,1-1.09-.39q-3.54-1.5-7.1-3.04c-2.36-1.03-4.73-2.07-7.08-3.12s-4.7-2.1-7.03-3.15-4.65-2.1-6.95-3.13c-.65-.3-1.3-.59-1.96-.89s-1.3-.59-1.96-.88-1.3-.59-1.96-.88-1.3-.59-1.96-.88c-.33-.15-.65-.27-.97-.38a9.1,9.1,0,0,0-.95-.27,7.693,7.693,0,0,0-.94-.16,7.4,7.4,0,0,0-.94-.05,8.639,8.639,0,0,0-1.24.1,8.822,8.822,0,0,0-1.26.3,10.229,10.229,0,0,0-1.28.5,12.9,12.9,0,0,0-1.31.7q-5.175,3.09-10.19,6.06c-3.35,1.98-6.64,3.92-9.91,5.84s-6.49,3.8-9.69,5.66-6.38,3.7-9.54,5.52a8.552,8.552,0,0,0-1.6,1.15,5.526,5.526,0,0,0-1.1,1.37,6.351,6.351,0,0,0-.66,1.73,12.427,12.427,0,0,0-.3,2.22c-.08,1.42-.18,2.84-.28,4.26s-.22,2.85-.34,4.27-.25,2.84-.38,4.25-.26,2.81-.4,4.2c-.09.92-.17,1.85-.26,2.79s-.17,1.88-.26,2.82-.17,1.89-.25,2.83-.16,1.89-.24,2.83c-.09,1.15-.17,2.32-.25,3.48s-.15,2.33-.22,3.5-.13,2.33-.2,3.49-.12,2.31-.18,3.45c-.03.49-.05.97-.08,1.46s-.05.97-.08,1.46-.05.97-.08,1.46-.05.97-.08,1.46a140.947,140.947,0,0,1,27.14,5.62,121.246,121.246,0,0,1,45.62,26.25,143.726,143.726,0,0,1,18.8,20.79" transform="translate(-108.32 0.73)" fill="#3d0600" stroke="#000" stroke-width="3" stroke-dasharray="1600"/>
      </g>
      <g transform="matrix(1, 0, 0, 1, 108.32, -0.73)" filter="url(#Path_2081)">
        <path id="Path_2081-2" data-name="Path 2081" d="M431.92,51.464l47.817,33.215,113.28,77.537A146.2,146.2,0,0,1,611.91,141.51a120.746,120.746,0,0,1,45.682-25.91,142.747,142.747,0,0,1,27.147-5.461c.08-.647.13-1.255.17-1.843s.05-1.147.05-1.7-.01-1.078-.03-1.6-.05-1.039-.08-1.549c-.06-1.118-.12-2.255-.18-3.392s-.13-2.274-.2-3.421-.14-2.284-.22-3.431-.16-2.284-.259-3.421c-.07-.922-.15-1.853-.23-2.784s-.16-1.863-.25-2.784-.17-1.853-.26-2.774-.18-1.833-.269-2.745c-.13-1.363-.26-2.735-.389-4.108s-.26-2.765-.379-4.157-.24-2.784-.339-4.176-.2-2.784-.279-4.167a13.965,13.965,0,0,0-.269-2.118,7.781,7.781,0,0,0-.669-1.892,6.693,6.693,0,0,0-1.238-1.676,9.363,9.363,0,0,0-1.976-1.461q-4.731-2.676-9.522-5.412t-9.671-5.549q-4.88-2.809-9.881-5.725T638.2,32.313a13.185,13.185,0,0,0-1.427-.735,10.276,10.276,0,0,0-1.407-.529,12.308,12.308,0,0,0-1.387-.324,9.312,9.312,0,0,0-1.377-.108,9.077,9.077,0,0,0-1.038.059,9.744,9.744,0,0,0-1.048.176,10.468,10.468,0,0,0-1.048.294c-.349.118-.709.255-1.058.412-.649.284-1.3.578-1.956.863s-1.307.578-1.956.863-1.308.578-1.956.863-1.307.578-1.956.873q-3.443,1.529-6.926,3.069t-7.006,3.078q-3.518,1.544-7.056,3.049c-2.355,1.01-4.721,2-7.076,2.98-.309.127-.649.245-1,.353a9.771,9.771,0,0,1-1.118.265,11.927,11.927,0,0,1-1.188.167c-.4.039-.808.059-1.218.059-.27,0-.529-.01-.788-.029a6.581,6.581,0,0,1-.769-.1c-.25-.039-.5-.1-.739-.157a5.844,5.844,0,0,1-.7-.235q-7.411-3-14.861-6.029t-14.89-6.064q-7.44-3.029-14.831-6.059t-14.672-6.01q-5.779-2.368-11.637-4.765t-11.757-4.8q-5.9-2.412-11.817-4.823t-11.807-4.8a4.246,4.246,0,0,0-.5-.167c-.17-.049-.369-.088-.569-.127a5.992,5.992,0,0,0-.609-.078c-.209-.019-.419-.029-.639-.029a9.255,9.255,0,0,0-1.048.059,6.538,6.538,0,0,0-1.008.2,4.741,4.741,0,0,0-.888.333,2.724,2.724,0,0,0-.689.471q-6.123,5.765-11.657,11.4t-10.51,11.235q-4.985,5.588-9.432,11.137T432.757,49.72a1.73,1.73,0,0,0-.14.225l-.12.235c-.04.078-.08.167-.12.255s-.08.186-.12.284c-.02.049-.05.108-.07.157s-.05.108-.08.176-.05.118-.08.186a2.4,2.4,0,0,1-.106.223Zm160.88,109.4L433.008,51.494c.08-.176.14-.333.2-.461s.1-.235.14-.324.08-.167.11-.225.07-.118.1-.167q3.952-5.544,8.394-11.078t9.4-11.1q4.97-5.573,10.48-11.2T473.449,5.567a1.873,1.873,0,0,1,.519-.333A4.076,4.076,0,0,1,474.687,5a5.518,5.518,0,0,1,.838-.147c.289-.029.6-.049.888-.049.17,0,.349.01.519.02a4.08,4.08,0,0,1,.5.059c.16.029.319.059.469.1a4.175,4.175,0,0,1,.419.137q5.884,2.4,11.807,4.8t11.817,4.823q5.9,2.412,11.757,4.8t11.627,4.765q7.291,2.985,14.681,6t14.831,6.059q7.44,3.029,14.891,6.068t14.861,6.029q.374.147.779.265a7.762,7.762,0,0,0,.828.176c.279.049.569.078.868.108a8.8,8.8,0,0,0,.888.039c.449,0,.888-.02,1.337-.059s.878-.108,1.3-.186a11.592,11.592,0,0,0,1.218-.294,10.025,10.025,0,0,0,1.088-.382q3.533-1.471,7.086-2.98c2.355-1.01,4.721-2.029,7.066-3.059s4.691-2.059,7.016-3.088,4.641-2.059,6.937-3.069c.649-.294,1.3-.578,1.956-.873s1.3-.578,1.956-.863,1.3-.578,1.956-.863,1.3-.578,1.956-.863c.329-.147.649-.265.968-.373a9.213,9.213,0,0,1,.948-.265,7.8,7.8,0,0,1,.938-.157,7.519,7.519,0,0,1,.938-.049,8.773,8.773,0,0,1,1.238.1,8.936,8.936,0,0,1,1.258.294,10.323,10.323,0,0,1,1.277.49,12.957,12.957,0,0,1,1.307.686q5.165,3.029,10.17,5.941c3.344,1.941,6.627,3.843,9.891,5.725s6.477,3.725,9.671,5.549,6.368,3.627,9.521,5.412a8.534,8.534,0,0,1,1.6,1.127,5.438,5.438,0,0,1,1.1,1.343,6.156,6.156,0,0,1,.659,1.7,11.977,11.977,0,0,1,.3,2.176c.08,1.392.18,2.784.28,4.176s.22,2.794.339,4.186.25,2.784.379,4.167.259,2.755.4,4.118c.09.9.17,1.814.26,2.735s.17,1.843.259,2.765.17,1.853.25,2.774.16,1.853.24,2.774c.09,1.127.17,2.274.25,3.412s.15,2.284.22,3.431.13,2.284.2,3.421.12,2.265.18,3.382c.03.48.05.951.08,1.431s.05.951.08,1.431.05.951.08,1.431.05.951.08,1.431a142.891,142.891,0,0,0-27.087,5.51,121.557,121.557,0,0,0-45.531,25.734,141.82,141.82,0,0,0-18.77,20.382" transform="translate(-381.83 1.91)" fill="#3d0600" stroke="#000" stroke-width="3" stroke-dasharray="1600"/>
      </g>
    </g>
    <g id="Group_1173" data-name="Group 1173" transform="translate(110.75 -1320.11)">
      <g transform="matrix(1, 0, 0, 1, 108.32, -0.73)" filter="url(#Path_1434)">
        <path id="Path_1434-2" data-name="Path 1434" d="M733.09,156.03a8,8,0,0,1,.38,2.08,5.153,5.153,0,0,1-.25,1.81,5.36,5.36,0,0,1-.91,1.62,9.4,9.4,0,0,1-1.6,1.52q-7.665,5.88-15.38,11.79t-15.39,11.83q-7.68,5.91-15.31,11.79l-15.14,11.67-14.4,11.1c-.35.27-.71.54-1.06.81s-.71.54-1.06.81-.71.54-1.06.81-.71.54-1.07.81c-.99.75-1.98,1.5-2.98,2.26s-2,1.53-2.99,2.31-1.98,1.56-2.96,2.36-1.95,1.6-2.9,2.42a6.038,6.038,0,0,0-.94,1.05,10.439,10.439,0,0,0-.8,1.35,9.846,9.846,0,0,0-.6,1.54,10.16,10.16,0,0,0-.34,1.6c-.18,1.47-.35,2.95-.51,4.43s-.33,2.96-.49,4.44-.32,2.95-.47,4.42-.31,2.93-.46,4.38q-.3,2.865-.6,5.78t-.63,5.84c-.22,1.95-.44,3.91-.67,5.86s-.47,3.91-.72,5.85a6.529,6.529,0,0,1-.57,1.88,10.788,10.788,0,0,1-1.09,1.8,11.768,11.768,0,0,1-1.41,1.57,9.59,9.59,0,0,1-1.52,1.16q-5.085,3.045-10.21,6.06t-10.21,5.94q-5.085,2.94-10.1,5.79c-3.33,1.9-6.63,3.77-9.87,5.6-.25.14-.54.28-.85.42a8.833,8.833,0,0,1-1.03.38,10.618,10.618,0,0,1-1.11.28,6.159,6.159,0,0,1-1.12.11c-.14,0-.27-.01-.4-.02s-.26-.03-.38-.05a2.481,2.481,0,0,1-.37-.09,3.435,3.435,0,0,1-.34-.13q-4.575-2.085-9.1-4.18t-9.08-4.23q-4.545-2.13-9.15-4.3l-9.32-4.39-10.36-4.88A145.129,145.129,0,0,0,543,262.11a124.326,124.326,0,0,0,2.9-26.78,120.954,120.954,0,0,0-2.99-26.52,135.864,135.864,0,0,0-8.86-26.21L713.08,97.08c.42,1.16.83,2.27,1.23,3.36s.79,2.15,1.17,3.19.76,2.06,1.13,3.07.74,2.01,1.11,3q1.35,3.66,2.66,7.24c.88,2.39,1.74,4.75,2.59,7.1s1.7,4.69,2.53,7.04,1.66,4.68,2.48,7.04c.3.85.58,1.7.84,2.56s.52,1.72.77,2.59.48,1.73.71,2.6.46,1.72.68,2.58c.16.62.33,1.25.5,1.88l.51,1.89c.17.63.35,1.26.53,1.89C732.71,154.79,732.9,155.41,733.09,156.03Zm-2.99,6.25a8.153,8.153,0,0,0,1.4-1.31,4.338,4.338,0,0,0,.78-1.35,3.949,3.949,0,0,0,.19-1.51,7.712,7.712,0,0,0-.35-1.79c-.19-.63-.38-1.26-.56-1.89s-.36-1.27-.53-1.9-.34-1.27-.51-1.9-.33-1.26-.5-1.88c-.22-.85-.45-1.71-.68-2.56s-.47-1.72-.71-2.58-.5-1.72-.76-2.57-.54-1.7-.83-2.54c-.82-2.35-1.64-4.69-2.48-7.03s-1.68-4.68-2.53-7.03-1.72-4.71-2.59-7.1-1.76-4.79-2.65-7.23c-.35-.95-.7-1.91-1.06-2.87s-.71-1.92-1.06-2.89-.71-1.94-1.07-2.91-.71-1.95-1.07-2.94L535.19,182.67a136.848,136.848,0,0,1,8.78,26.18,122.991,122.991,0,0,1,2.98,26.45,124.6,124.6,0,0,1-2.82,26.63,143.413,143.413,0,0,1-8.62,26.7l9.48,4.47,9.31,4.39q4.6,2.17,9.15,4.29t9.07,4.22q4.525,2.09,9.1,4.18.105.045.24.09c.08.02.17.04.26.06a2.36,2.36,0,0,0,.28.04c.1.01.2.01.3.01a5.65,5.65,0,0,0,.89-.08,7.98,7.98,0,0,0,.94-.22,9.28,9.28,0,0,0,.93-.33,8.412,8.412,0,0,0,.85-.42q4.86-2.745,9.86-5.6t10.09-5.78c3.39-1.96,6.8-3.94,10.2-5.94s6.82-4.02,10.21-6.06a8.429,8.429,0,0,0,1.46-1.13,10.742,10.742,0,0,0,1.26-1.44,9.193,9.193,0,0,0,.93-1.58,5.4,5.4,0,0,0,.46-1.53c.25-1.94.49-3.88.72-5.84s.45-3.91.67-5.86.42-3.9.63-5.84.41-3.87.6-5.78c.15-1.45.3-2.91.46-4.38s.31-2.95.47-4.43.32-2.96.49-4.44.34-2.96.51-4.43a10.01,10.01,0,0,1,.33-1.59,13.123,13.123,0,0,1,.61-1.68,9.563,9.563,0,0,1,.9-1.59,6.828,6.828,0,0,1,1.18-1.32c.95-.82,1.93-1.63,2.91-2.43s1.98-1.59,2.97-2.37,2-1.55,3-2.32,2-1.52,2.99-2.27c.35-.27.71-.54,1.06-.81s.71-.54,1.06-.81.71-.54,1.06-.81.71-.54,1.06-.81l14.4-11.1q7.515-5.79,15.14-11.67t15.31-11.79q7.68-5.91,15.39-11.83,7.725-5.9,15.4-11.79" transform="translate(-108.32 0.73)" fill="#3d0600" stroke="#000" stroke-width="3" stroke-dasharray="1600"/>
      </g>
    </g>
  </g>
</svg>
