<svg xmlns="http://www.w3.org/2000/svg" xmlns:xlink="http://www.w3.org/1999/xlink" width="510" height="478.023" viewBox="0 0 510 478.023">
  <defs>
    <radialGradient id="radial-gradient" cx="0.5" cy="0.5" r="0.5" gradientUnits="objectBoundingBox">
      <stop offset="0" stop-color="#333"/>
      <stop offset="1" stop-color="#212121"/>
    </radialGradient>
    <filter id="Path_4" x="0" y="0" width="318" height="478.023" filterUnits="userSpaceOnUse">
      <feOffset input="SourceAlpha"/>
      <feGaussianBlur stdDeviation="5" result="blur"/>
      <feFlood flood-color="#fff"/>
      <feComposite operator="in" in2="blur"/>
      <feComposite in="SourceGraphic"/>
    </filter>
    <filter id="Path_5" x="341.731" y="106.252" width="104.269" height="265.487" filterUnits="userSpaceOnUse">
      <feOffset input="SourceAlpha"/>
      <feGaussianBlur stdDeviation="5" result="blur-2"/>
      <feFlood flood-color="#fff"/>
      <feComposite operator="in" in2="blur-2"/>
      <feComposite in="SourceGraphic"/>
    </filter>
    <filter id="Path_6" x="386.855" y="61.134" width="123.145" height="355.746" filterUnits="userSpaceOnUse">
      <feOffset input="SourceAlpha"/>
      <feGaussianBlur stdDeviation="5" result="blur-3"/>
      <feFlood flood-color="#fff"/>
      <feComposite operator="in" in2="blur-3"/>
      <feComposite in="SourceGraphic"/>
    </filter>
  </defs>
  <g id="Group_5" data-name="Group 5" transform="translate(15 -0.986)">
    <g transform="matrix(1, 0, 0, 1, -15, 0.99)" filter="url(#Path_4)">
      <path id="Path_4-2" data-name="Path 4" d="M278.944,17.577a15.951,15.951,0,0,0-16.928,1.92L106.368,144.009H32a32.053,32.053,0,0,0-32,32v128a32.032,32.032,0,0,0,32,32h74.368L261.984,460.521A16.034,16.034,0,0,0,288,448.009v-416a16.051,16.051,0,0,0-9.056-14.432Z" transform="translate(15 -0.99)" fill="url(#radial-gradient)"/>
    </g>
    <g transform="matrix(1, 0, 0, 1, -15, 0.99)" filter="url(#Path_5)">
      <path id="Path_5-2" data-name="Path 5" d="M368.992,126.857a16.011,16.011,0,1,0-22.5,22.784,127.625,127.625,0,0,1,0,180.736,15.988,15.988,0,0,0,22.5,22.72C399.328,323.241,416,283.049,416,240.009S399.328,156.777,368.992,126.857Z" transform="translate(15 -0.99)" fill="url(#radial-gradient)"/>
    </g>
    <g transform="matrix(1, 0, 0, 1, -15, 0.99)" filter="url(#Path_6)">
      <path id="Path_6-2" data-name="Path 6" d="M414.144,81.769a16.009,16.009,0,1,0-22.56,22.72,190.94,190.94,0,0,1,0,271.008,16.009,16.009,0,1,0,22.56,22.72,223,223,0,0,0,0-316.448Z" transform="translate(15 -0.99)" fill="url(#radial-gradient)"/>
    </g>
  </g>
</svg>
