<svg xmlns="http://www.w3.org/2000/svg" xmlns:xlink="http://www.w3.org/1999/xlink" width="328" height="328" viewBox="0 0 328 328">
  <defs>
    <filter id="Rectangle_2" x="0" y="0" width="328" height="328" filterUnits="userSpaceOnUse">
      <feOffset input="SourceAlpha"/>
      <feGaussianBlur stdDeviation="3" result="blur"/>
      <feFlood flood-opacity="0.478"/>
      <feComposite operator="in" in2="blur"/>
      <feComposite in="SourceGraphic"/>
    </filter>
    <filter id="Path_16" x="197.868" y="207.542" width="67.45" height="67.38" filterUnits="userSpaceOnUse">
      <feOffset input="SourceAlpha"/>
      <feGaussianBlur stdDeviation="3" result="blur-2"/>
      <feFlood flood-opacity="0.902"/>
      <feComposite operator="in" in2="blur-2"/>
      <feComposite in="SourceGraphic"/>
    </filter>
    <filter id="Path_17" x="166.739" y="172.041" width="73.375" height="86.442" filterUnits="userSpaceOnUse">
      <feOffset input="SourceAlpha"/>
      <feGaussianBlur stdDeviation="3" result="blur-3"/>
      <feFlood flood-opacity="0.902"/>
      <feComposite operator="in" in2="blur-3"/>
      <feComposite in="SourceGraphic"/>
    </filter>
    <filter id="Path_18" x="252.028" y="203.317" width="54.354" height="70.682" filterUnits="userSpaceOnUse">
      <feOffset input="SourceAlpha"/>
      <feGaussianBlur stdDeviation="3" result="blur-4"/>
      <feFlood flood-opacity="0.902"/>
      <feComposite operator="in" in2="blur-4"/>
      <feComposite in="SourceGraphic"/>
    </filter>
    <filter id="Path_19" x="239.575" y="250.19" width="53.553" height="48.248" filterUnits="userSpaceOnUse">
      <feOffset input="SourceAlpha"/>
      <feGaussianBlur stdDeviation="3" result="blur-5"/>
      <feFlood flood-opacity="0.902"/>
      <feComposite operator="in" in2="blur-5"/>
      <feComposite in="SourceGraphic"/>
    </filter>
    <filter id="Path_20" x="196.121" y="264.939" width="57.177" height="43.012" filterUnits="userSpaceOnUse">
      <feOffset input="SourceAlpha"/>
      <feGaussianBlur stdDeviation="3" result="blur-6"/>
      <feFlood flood-opacity="0.902"/>
      <feComposite operator="in" in2="blur-6"/>
      <feComposite in="SourceGraphic"/>
    </filter>
    <filter id="Path_21" x="227.525" y="178.744" width="45.542" height="47.517" filterUnits="userSpaceOnUse">
      <feOffset input="SourceAlpha"/>
      <feGaussianBlur stdDeviation="3" result="blur-7"/>
      <feFlood flood-opacity="0.902"/>
      <feComposite operator="in" in2="blur-7"/>
      <feComposite in="SourceGraphic"/>
    </filter>
    <filter id="Path_22" x="180.977" y="241.309" width="38.911" height="53.348" filterUnits="userSpaceOnUse">
      <feOffset input="SourceAlpha"/>
      <feGaussianBlur stdDeviation="3" result="blur-8"/>
      <feFlood flood-opacity="0.902"/>
      <feComposite operator="in" in2="blur-8"/>
      <feComposite in="SourceGraphic"/>
    </filter>
    <filter id="Path_23" x="18.892" y="24.194" width="137.113" height="139.776" filterUnits="userSpaceOnUse">
      <feOffset input="SourceAlpha"/>
      <feGaussianBlur stdDeviation="3" result="blur-9"/>
      <feFlood flood-opacity="0.902"/>
      <feComposite operator="in" in2="blur-9"/>
      <feComposite in="SourceGraphic"/>
    </filter>
    <filter id="Path_24" x="52.902" y="54.013" width="68.826" height="68.807" filterUnits="userSpaceOnUse">
      <feOffset input="SourceAlpha"/>
      <feGaussianBlur stdDeviation="3" result="blur-10"/>
      <feFlood flood-opacity="0.902"/>
      <feComposite operator="in" in2="blur-10"/>
      <feComposite in="SourceGraphic"/>
    </filter>
    <filter id="Path_7" x="14.521" y="254.599" width="145.837" height="53.065" filterUnits="userSpaceOnUse">
      <feOffset input="SourceAlpha"/>
      <feGaussianBlur stdDeviation="3" result="blur-11"/>
      <feFlood flood-opacity="0.8"/>
      <feComposite operator="in" in2="blur-11"/>
      <feComposite in="SourceGraphic"/>
    </filter>
    <filter id="Path_8" x="57.461" y="169.243" width="60.076" height="53.062" filterUnits="userSpaceOnUse">
      <feOffset input="SourceAlpha"/>
      <feGaussianBlur stdDeviation="3" result="blur-12"/>
      <feFlood flood-opacity="0.8"/>
      <feComposite operator="in" in2="blur-12"/>
      <feComposite in="SourceGraphic"/>
    </filter>
    <filter id="Path_9" x="36.102" y="211.972" width="56.371" height="52.882" filterUnits="userSpaceOnUse">
      <feOffset input="SourceAlpha"/>
      <feGaussianBlur stdDeviation="3" result="blur-13"/>
      <feFlood flood-opacity="0.8"/>
      <feComposite operator="in" in2="blur-13"/>
      <feComposite in="SourceGraphic"/>
    </filter>
    <filter id="Path_10" x="82.393" y="211.939" width="56.694" height="53.04" filterUnits="userSpaceOnUse">
      <feOffset input="SourceAlpha"/>
      <feGaussianBlur stdDeviation="3" result="blur-14"/>
      <feFlood flood-opacity="0.8"/>
      <feComposite operator="in" in2="blur-14"/>
      <feComposite in="SourceGraphic"/>
    </filter>
    <filter id="Path_11" x="62.551" y="234.93" width="49.774" height="49.773" filterUnits="userSpaceOnUse">
      <feOffset input="SourceAlpha"/>
      <feGaussianBlur stdDeviation="3" result="blur-15"/>
      <feFlood flood-opacity="0.8"/>
      <feComposite operator="in" in2="blur-15"/>
      <feComposite in="SourceGraphic"/>
    </filter>
    <filter id="Path_25" x="234.356" y="23.986" width="79.144" height="66.888" filterUnits="userSpaceOnUse">
      <feOffset input="SourceAlpha"/>
      <feGaussianBlur stdDeviation="3" result="blur-16"/>
      <feFlood flood-opacity="0.902"/>
      <feComposite operator="in" in2="blur-16"/>
      <feComposite in="SourceGraphic"/>
    </filter>
    <filter id="Path_26" x="152.129" y="23.65" width="79.439" height="67.258" filterUnits="userSpaceOnUse">
      <feOffset input="SourceAlpha"/>
      <feGaussianBlur stdDeviation="3" result="blur-17"/>
      <feFlood flood-opacity="0.902"/>
      <feComposite operator="in" in2="blur-17"/>
      <feComposite in="SourceGraphic"/>
    </filter>
    <filter id="Path_27" x="203.078" y="95.833" width="59.959" height="83.328" filterUnits="userSpaceOnUse">
      <feOffset input="SourceAlpha"/>
      <feGaussianBlur stdDeviation="3" result="blur-18"/>
      <feFlood flood-opacity="0.902"/>
      <feComposite operator="in" in2="blur-18"/>
      <feComposite in="SourceGraphic"/>
    </filter>
    <filter id="Path_28" x="207.02" y="56.69" width="51.943" height="51.743" filterUnits="userSpaceOnUse">
      <feOffset input="SourceAlpha"/>
      <feGaussianBlur stdDeviation="3" result="blur-19"/>
      <feFlood flood-opacity="0.902"/>
      <feComposite operator="in" in2="blur-19"/>
      <feComposite in="SourceGraphic"/>
    </filter>
    <filter id="Path_29" x="164.203" y="76.963" width="63.114" height="48.177" filterUnits="userSpaceOnUse">
      <feOffset input="SourceAlpha"/>
      <feGaussianBlur stdDeviation="3" result="blur-20"/>
      <feFlood flood-opacity="0.902"/>
      <feComposite operator="in" in2="blur-20"/>
      <feComposite in="SourceGraphic"/>
    </filter>
    <filter id="Path_30" x="238.687" y="76.94" width="63.231" height="48.2" filterUnits="userSpaceOnUse">
      <feOffset input="SourceAlpha"/>
      <feGaussianBlur stdDeviation="3" result="blur-21"/>
      <feFlood flood-opacity="0.902"/>
      <feComposite operator="in" in2="blur-21"/>
      <feComposite in="SourceGraphic"/>
    </filter>
    <filter id="Path_31" x="217.252" y="9" width="31.493" height="62.202" filterUnits="userSpaceOnUse">
      <feOffset input="SourceAlpha"/>
      <feGaussianBlur stdDeviation="3" result="blur-22"/>
      <feFlood flood-opacity="0.902"/>
      <feComposite operator="in" in2="blur-22"/>
      <feComposite in="SourceGraphic"/>
    </filter>
  </defs>
  <g id="Group_9" data-name="Group 9" transform="translate(29 2930)">
    <g transform="matrix(1, 0, 0, 1, -29, -2930)" filter="url(#Rectangle_2)">
      <g id="Rectangle_2-2" data-name="Rectangle 2" transform="translate(9 9)" fill="rgba(255,255,255,0)" stroke="rgba(255,255,255,0.62)" stroke-linecap="round" stroke-width="2">
        <rect width="310" height="310" rx="27" stroke="none"/>
        <rect x="1" y="1" width="308" height="308" rx="26" fill="none"/>
      </g>
    </g>
    <g id="Group_8" data-name="Group 8" transform="translate(-366 60)">
      <g id="navBranchDiplo" transform="translate(512.739 -2808.959)">
        <g transform="matrix(1, 0, 0, 1, -175.74, -181.04)" filter="url(#Path_16)">
          <path id="Path_16-2" data-name="Path 16" d="M106.59,134.342a24.725,24.725,0,1,1,49.45.111c-.012,13.809-11.039,24.614-25.111,24.6A24.579,24.579,0,0,1,106.59,134.342Z" transform="translate(100.28 106.87)" fill="#d91313"/>
        </g>
        <g transform="matrix(1, 0, 0, 1, -175.74, -181.04)" filter="url(#Path_17)">
          <path id="Path_17-2" data-name="Path 17" d="M73.207,115.329c-3.874.7-7.562,1.35-11.366,2.034a10.672,10.672,0,0,1-.526-2.828c.374-3.36-1.344-5.306-4.172-6.574-1.741-.783-2.209-1.987-1.765-3.874.906-3.816,1.648-7.679,2.367-11.541a4.509,4.509,0,0,0-.216-2.46c-1.245-2.957-2.671-5.832-3.927-8.783a2.914,2.914,0,0,1-.111-2.186A61.378,61.378,0,0,1,66.936,61.952c3.354,3.711,6.65,7.363,9.794,10.852,3.863-2.384,7.422-4.95,11.308-6.855,2.571-1.262,4.12-2.671,4.7-5.552a59.877,59.877,0,0,1,2.676-8.316c.2-.579.812-1.338,1.332-1.426,3.857-.649,7.737-1.145,11.951-1.736V72.47C97.78,73.148,88.3,77.093,81.23,85.718Q70.685,98.56,73.207,115.329Z" transform="translate(122.42 132.12)" fill="#d91313"/>
        </g>
        <g transform="matrix(1, 0, 0, 1, -175.74, -181.04)" filter="url(#Path_18)">
          <path id="Path_18-2" data-name="Path 18" d="M199.27,109.371c3.15-2.338,6.118-4.546,9.327-6.931.912,1.379,1.829,2.589,2.548,3.9a3.684,3.684,0,0,0,3.366,2.209c4.9.316,4.961.4,6.5,5.207.906,2.84,1.455,5.791,2.326,8.643a4.991,4.991,0,0,0,1.671,2.507c3.045,2.127,6.241,4.05,9.321,6.13.584.392,1.309,1.175,1.3,1.759a63.346,63.346,0,0,1-4.506,22.323c-9.011-3.518-17.888-6.977-27.068-10.554C208.638,132.074,206.68,120.456,199.27,109.371Z" transform="translate(61.76 109.88)" fill="#d91313"/>
        </g>
        <g transform="matrix(1, 0, 0, 1, -175.74, -181.04)" filter="url(#Path_19)">
          <path id="Path_19-2" data-name="Path 19" d="M186.065,212.9c-2.828-5.5-5.417-10.536-8.105-15.778a37.286,37.286,0,0,0,14.954-14.469c6.767,3.793,13.4,7.509,20.6,11.547-2.618,3.495-5.037,6.808-7.585,10.016-.286.362-1.373.286-2.016.123-3.384-.865-6.136-.421-8.847,2.25C192.564,209.04,189.279,210.694,186.065,212.9Z" transform="translate(70.61 76.54)" fill="#d91313"/>
        </g>
        <g transform="matrix(1, 0, 0, 1, -175.74, -181.04)" filter="url(#Path_20)">
          <path id="Path_20-2" data-name="Path 20" d="M139.644,210.391c1.04,3.863,2,7.433,3.132,11.617-3.945.5-7.7,1.566-11.343,1.268-4.733-.386-8.105,1.011-10.735,4.809-.654.947-1.771,1.584-2.39,2.542-1.654,2.571-3.728,2.752-6.323,1.584-2.186-.982-4.476-1.736-6.7-2.63a15.223,15.223,0,0,1-1.683-.947c3.413-6.878,6.8-13.7,10.291-20.745C122.131,211.729,130.616,212.846,139.644,210.391Z" transform="translate(101.52 66.05)" fill="#d91313"/>
        </g>
        <g transform="matrix(1, 0, 0, 1, -175.74, -181.04)" filter="url(#Path_21)">
          <path id="Path_21-2" data-name="Path 21" d="M157.34,77.594c.818-5.908,1.584-11.448,2.384-17.2a44.853,44.853,0,0,1,14.282,4.021c.5.228.806,1.3.853,1.993.222,3.343.234,6.7.532,10.034a4.4,4.4,0,0,0,1.4,2.612c2.53,2.279,5.207,4.395,8.094,6.8-1.718,1.5-3.109,2.712-4.652,4.061A38.705,38.705,0,0,0,157.34,77.594Z" transform="translate(79.19 127.35)" fill="#d91313"/>
        </g>
        <g transform="matrix(1, 0, 0, 1, -175.74, -181.04)" filter="url(#Path_22)">
          <path id="Path_22-2" data-name="Path 22" d="M98.6,188.413c-3.331,4.862-6.533,9.537-9.858,14.387a46.61,46.61,0,0,1-10.811-9.829,2.565,2.565,0,0,1-.018-2.139c1.344-3.15,2.9-6.206,4.184-9.379a4.491,4.491,0,0,0-.1-2.974c-1.227-3.232-2.641-6.4-3.886-9.356.479-.508.561-.684.672-.707,1.625-.351,3.547-1.344,4.8-.806,1.034.45,1.3,2.712,1.876,4.184A35.813,35.813,0,0,0,98.6,188.413Z" transform="translate(112.29 82.86)" fill="#d91313"/>
        </g>
      </g>
      <g id="navBranchLogi" transform="translate(364.892 -2956.806)">
        <g transform="matrix(1, 0, 0, 1, -27.89, -33.19)" filter="url(#Path_23)">
          <path id="Path_23-2" data-name="Path 23" d="M52.095,109.846c.532-3.962,1.128-7.912,1.531-11.886a3.606,3.606,0,0,0-.906-2.571c-3.88-3.863-5.487-8.421-4.05-13.727A12.824,12.824,0,0,1,58.7,72.031a15.562,15.562,0,0,1,6.235.035,3.279,3.279,0,0,0,3.413-1c7.632-7.568,16.62-12.886,27.162-15.048,17.94-3.682,34.116.193,48.164,12.19a4.962,4.962,0,0,1,.491.438c2.32,2.6,4.564,4.015,8.666,3.161,5.651-1.175,11.331,2.986,13.458,8.351A13.444,13.444,0,0,1,162.5,95.453a2.667,2.667,0,0,0-.976,3,54.947,54.947,0,0,1-33.987,62.82,3.474,3.474,0,0,1-.392.193c-3.611.859-6.013,2.361-7.194,6.58-1.625,5.815-7.7,8.871-13.891,8.351a13.479,13.479,0,0,1-11.781-10.975,2.871,2.871,0,0,0-2.326-2.595,54.724,54.724,0,0,1-32.6-26.163A56.891,56.891,0,0,1,52.095,109.846ZM71.479,75.689c4.278,4.885,5.2,10.414,2.045,16.123-3.062,5.54-8.152,7.609-14.358,6.89-1.625,4.365-2,13.382-.666,19.91q5.961,29.006,33.97,38.779c1.49.52,2.332.479,3.278-1.145a13.514,13.514,0,0,1,15.953-6.27c4.05,1.262,6.767,4.137,8.62,7.831,24.281-5.143,42.543-32.591,35.694-58.9-11.991,1.537-21.353-12.184-12.3-23.258C124.768,54.7,90.1,55.02,71.479,75.689Z" transform="translate(-20.26 -21.49)" fill="#d91313"/>
        </g>
        <g transform="matrix(1, 0, 0, 1, -27.89, -33.19)" filter="url(#Path_24)">
          <path id="Path_24-2" data-name="Path 24" d="M131.864,105.709c14.306-.111,25.666,12.307,25.3,26.04a25.413,25.413,0,1,1-25.3-26.04Z" transform="translate(-44.45 -42.7)" fill="#d91313"/>
        </g>
      </g>
      <g id="Group_6" data-name="Group 6" transform="translate(360.521 -2811.757)">
        <g transform="matrix(1, 0, 0, 1, -23.52, -178.24)" filter="url(#Path_7)">
          <path id="Path_7-2" data-name="Path 7" d="M105.354,207.56c-5.2,0-10.391-.075-15.589.035a6.1,6.1,0,0,1-4.972-1.806c-3.3-3.543-7.286-4.64-12.147-4.378-7.437.392-14.915.166-22.372.065-2.058-.03-3.814.322-5.2,1.872C41.789,207,37.708,207.827,32.9,207.66c-9.289-.322-18.6-.131-27.9-.05-1.711.015-2.848-.4-3.548-2.023-.463-1.072-1.293-1.993-1.671-3.08a4,4,0,0,1-.1-2.727q6.272-12.862,12.791-25.6a3.089,3.089,0,0,1,2.254-1.409c7.795-.1,15.589.005,23.379-.075,1.756-.02,1.993.931,2.35,2.244a23.713,23.713,0,0,0,44.539,3.688,7.931,7.931,0,0,0,.886-2.335c.3-3.1,2.023-3.714,4.9-3.628,6.864.211,13.743.106,20.611.01a3.082,3.082,0,0,1,3.271,2q5.948,12.183,12.127,24.254a4.531,4.531,0,0,1-.075,4.378c-1.495,3.527-3.754,4.685-7.548,4.368-4.579-.382-9.209-.091-13.818-.091C105.354,207.565,105.354,207.565,105.354,207.56Z" transform="translate(24.04 90.94)" fill="#d91313"/>
        </g>
        <g transform="matrix(1, 0, 0, 1, -23.52, -178.24)" filter="url(#Path_8)">
          <path id="Path_8-2" data-name="Path 8" d="M105.665,37.937c-5.193,0-10.391-.07-15.584.04-1.751.035-2.571-.75-3.573-2.073-2.315-3.059-2.113-5.7-.267-9.033,3.93-7.1,7.4-14.447,10.95-21.748a3.186,3.186,0,0,1,3.447-2.088c3.6.136,7.206.1,10.809.015a2.526,2.526,0,0,1,2.7,1.635c4.136,8.409,8.4,16.757,12.5,25.185a4.8,4.8,0,0,1-.06,3.135c-1.243,4.167-4.1,5.425-8.363,5.012C114.073,37.625,109.851,37.937,105.665,37.937Z" transform="translate(-18.35 175.21)" fill="#d91313"/>
        </g>
        <g transform="matrix(1, 0, 0, 1, -23.52, -178.24)" filter="url(#Path_9)">
          <path id="Path_9-2" data-name="Path 9" d="M80.737,87.953V103.1c-.639.2-1.328.413-2.028.619-8.751,2.551-14.462,8.182-16.928,16.953-.453,1.6-1.067,2.174-2.707,2.134-3.855-.1-7.714-.106-11.569.015-1.661.05-2.43-.674-3.382-1.947-2.264-3.039-2.285-5.656-.387-9.053,3.99-7.161,7.417-14.638,11.151-21.945.4-.775,1.3-1.827,1.988-1.837C64.741,87.908,72.611,87.953,80.737,87.953Z" transform="translate(2.74 133.03)" fill="#d91313"/>
        </g>
        <g transform="matrix(1, 0, 0, 1, -23.52, -178.24)" filter="url(#Path_10)">
          <path id="Path_10-2" data-name="Path 10" d="M134.36,103.036v-14.9c.775-.075,1.495-.2,2.209-.206,6.874-.015,13.753.03,20.626-.045a2.936,2.936,0,0,1,3.08,1.9q6.084,12.4,12.364,24.712c.7,1.374.418,2.345-.131,3.688-1.5,3.678-3.885,5.148-7.905,4.64-2.969-.377-6.033,0-9.043-.151a2.639,2.639,0,0,1-1.957-1.3C149.557,110.252,145.989,106.79,134.36,103.036Z" transform="translate(-42.97 133.06)" fill="#d91313"/>
        </g>
        <g transform="matrix(1, 0, 0, 1, -23.52, -178.24)" filter="url(#Path_11)">
          <path id="Path_11-2" data-name="Path 11" d="M94.929,149.284a15.867,15.867,0,1,1,4.581,11.344A15.887,15.887,0,0,1,94.929,149.284Z" transform="translate(-23.38 110.36)" fill="#d91313"/>
        </g>
      </g>
      <g id="navBranchTact" transform="translate(498.129 -2972)">
        <g transform="matrix(1, 0, 0, 1, -161.13, -18)" filter="url(#Path_25)">
          <path id="Path_25-2" data-name="Path 25" d="M229.373,49.266c-.579.982-1.034,1.817-1.549,2.624q-13.262,20.941-26.5,41.9a5.042,5.042,0,0,1-4.108,2.694c-3.664.386-7.281,1.239-10.945,1.625a3.857,3.857,0,0,1-3.027-1.227q-7.451-10.449-14.58-21.119a3.558,3.558,0,0,1-.187-3.021c1.9-3.717,3.968-7.357,6.148-10.922a4.606,4.606,0,0,1,2.6-1.969c16.813-3.588,33.648-7.077,50.478-10.571A9.572,9.572,0,0,1,229.373,49.266Z" transform="translate(75.13 -16.25)" fill="#d91313"/>
        </g>
        <g transform="matrix(1, 0, 0, 1, -161.13, -18)" filter="url(#Path_26)">
          <path id="Path_26-2" data-name="Path 26" d="M27.52,48.66c7.836,1.607,14.954,3.05,22.072,4.535,9.981,2.08,19.974,4.132,29.926,6.352a5.836,5.836,0,0,1,3.267,2.367,118.041,118.041,0,0,1,5.867,10.4,3.852,3.852,0,0,1-.111,3.261Q81.423,86.253,73.972,96.707a3.537,3.537,0,0,1-2.776,1.2c-4.149-.473-8.269-1.163-12.383-1.905a3.387,3.387,0,0,1-2.08-1.327C47.114,79.609,37.554,64.5,27.52,48.66Z" transform="translate(133.61 -16.01)" fill="#d91313"/>
        </g>
        <g transform="matrix(1, 0, 0, 1, -161.13, -18)" filter="url(#Path_27)">
          <path id="Path_27-2" data-name="Path 27" d="M135.488,237.507c-3.419-8.076-6.755-15.942-10.081-23.808-3.483-8.234-7.03-16.439-10.367-24.731a6.277,6.277,0,0,1,.1-4.319c1.478-3.588,3.4-6.989,5-10.53a2.884,2.884,0,0,1,3.109-1.934q12.4.114,24.813-.006a2.882,2.882,0,0,1,3.068,2c1.648,3.629,3.541,7.141,5.131,10.793a4.981,4.981,0,0,1,.152,3.518c-6.644,15.971-13.4,31.889-20.143,47.82A8.614,8.614,0,0,1,135.488,237.507Z" transform="translate(97.37 -67.35)" fill="#d91313"/>
        </g>
        <g transform="matrix(1, 0, 0, 1, -161.13, -18)" filter="url(#Path_28)">
          <path id="Path_28-2" data-name="Path 28" d="M138.321,138.941a16.872,16.872,0,1,1,17.07-16.672A16.894,16.894,0,0,1,138.321,138.941Z" transform="translate(94.57 -39.51)" fill="#d91313"/>
        </g>
        <g transform="matrix(1, 0, 0, 1, -161.13, -18)" filter="url(#Path_29)">
          <path id="Path_29-2" data-name="Path 29" d="M48.18,169.535c12.336-9.8,24.672-19.606,37.312-29.645,2.583,4.272,5.078,8.392,7.8,12.891-15.159,5.826-30.06,11.553-44.968,17.286C48.273,169.892,48.227,169.711,48.18,169.535Z" transform="translate(125.02 -53.93)" fill="#d91313"/>
        </g>
        <g transform="matrix(1, 0, 0, 1, -161.13, -18)" filter="url(#Path_30)">
          <path id="Path_30-2" data-name="Path 30" d="M220.631,170.051c-14.831-5.692-29.663-11.384-44.991-17.268,2.589-4.319,5.055-8.427,7.761-12.932,12.587,10,25.029,19.886,37.47,29.768C220.789,169.758,220.713,169.9,220.631,170.051Z" transform="translate(72.05 -53.91)" fill="#d91313"/>
        </g>
        <g transform="matrix(1, 0, 0, 1, -161.13, -18)" filter="url(#Path_31)">
          <path id="Path_31-2" data-name="Path 31" d="M152.453,67.792H138.96c2.186-14.837,4.342-29.505,6.5-44.173.152-.012.3-.023.456-.029C148.088,38.24,150.25,52.9,152.453,67.792Z" transform="translate(87.29 -5.59)" fill="#d91313"/>
        </g>
      </g>
    </g>
  </g>
</svg>
