<?xml version="1.0" standalone="no"?>
<!DOCTYPE svg PUBLIC "-//W3C//DTD SVG 20010904//EN"
 "http://www.w3.org/TR/2001/REC-SVG-20010904/DTD/svg10.dtd">
<svg version="1.0" xmlns="http://www.w3.org/2000/svg"
 width="999.000000pt" height="999.000000pt" viewBox="0 0 999.000000 999.000000"
 preserveAspectRatio="xMidYMid meet">
<metadata>
Created by potrace 1.11, written by Peter Selinger 2001-2013
</metadata>
<g transform="translate(0.000000,999.000000) scale(0.100000,-0.100000)"
fill="#000000" stroke="none">
<path d="M1284 9258 c-93 -95 -212 -225 -265 -288 -100 -121 -249 -317 -249
-328 0 -6 2398 -1675 2538 -1767 l45 -29 16 24 c39 59 142 180 221 258 302
301 729 511 1143 562 78 10 97 16 97 29 0 32 -70 844 -72 846 -2 1 -173 100
-380 219 l-378 218 -37 -13 c-159 -51 -408 -160 -574 -250 l-106 -58 -909 375
c-500 206 -912 374 -915 374 -3 0 -82 -78 -175 -172z"/>
<path d="M7617 9055 l-908 -375 -82 47 c-145 82 -343 170 -558 247 l-76 28
-369 -213 c-203 -116 -374 -217 -381 -223 -8 -7 -23 -146 -42 -391 -17 -209
-34 -401 -37 -426 l-5 -45 97 -13 c530 -70 1052 -378 1349 -798 17 -24 33 -43
37 -43 4 0 191 128 415 284 224 156 802 556 1283 890 481 334 876 611 878 616
6 17 -163 236 -330 426 -105 120 -344 364 -356 364 -4 -1 -416 -169 -915 -375z"/>
<path d="M305 7827 c-90 -200 -186 -470 -253 -717 -60 -221 -60 -199 3 -245
29 -22 380 -291 778 -599 l725 -558 6 -142 c13 -256 63 -616 90 -644 16 -17
738 -434 751 -434 12 0 756 350 768 361 4 5 -7 46 -26 92 -198 479 -200 1021
-6 1513 23 59 40 108 38 111 -7 6 -2827 1335 -2834 1335 -3 0 -21 -33 -40 -73z"/>
<path d="M8230 7235 c-773 -365 -1409 -666 -1414 -667 -5 -2 12 -56 38 -119
98 -246 140 -469 139 -749 0 -271 -45 -506 -142 -745 -23 -54 -38 -102 -33
-106 11 -10 756 -361 767 -361 6 -1 179 97 387 217 l376 217 16 86 c39 211 66
472 66 632 l0 65 772 595 c424 327 776 598 782 602 36 24 -295 1000 -338 997
-6 0 -643 -299 -1416 -664z"/>
<path d="M4797 7130 c-328 -52 -593 -188 -824 -422 -357 -363 -490 -863 -363
-1363 135 -531 572 -939 1122 -1046 144 -28 367 -30 507 -5 451 82 835 367
1039 772 185 368 200 812 41 1194 -183 437 -562 749 -1039 855 -88 19 -394 29
-483 15z"/>
<path d="M2988 4318 l-348 -241 0 -437 0 -437 48 -45 c119 -111 392 -311 537
-392 l50 -28 130 -970 c72 -533 133 -974 136 -980 15 -23 407 -120 660 -162
169 -29 357 -51 365 -43 4 4 264 3066 264 3118 0 13 -15 17 -67 22 -254 21
-580 136 -832 292 -187 116 -405 314 -525 478 -28 37 -55 67 -60 67 -6 -1
-167 -109 -358 -242z"/>
<path d="M6585 4492 c-64 -87 -230 -258 -325 -335 -287 -231 -690 -403 -1019
-433 -40 -4 -74 -10 -76 -15 -6 -9 252 -3119 259 -3127 14 -14 423 47 631 94
174 38 379 95 391 108 6 6 69 447 140 980 l129 969 40 25 c225 142 432 294
568 416 l27 25 0 439 0 439 -349 241 c-191 133 -352 242 -357 242 -5 0 -31
-30 -59 -68z"/>
</g>
</svg>
