<svg xmlns="http://www.w3.org/2000/svg" xmlns:xlink="http://www.w3.org/1999/xlink" width="671.067" height="542.534" viewBox="0 0 671.067 542.534"><defs><radialGradient id="a" cx="0.5" cy="0.5" r="1.557" gradientUnits="objectBoundingBox"><stop offset="0" stop-color="#fff"/><stop offset="1" stop-color="gray"/></radialGradient><filter id="b" x="0" y="0" width="671.067" height="542.534" filterUnits="userSpaceOnUse"><feOffset input="SourceAlpha"/><feGaussianBlur stdDeviation="5" result="c"/><feFlood/><feComposite operator="in" in2="c"/><feComposite in="SourceGraphic"/></filter></defs><g transform="matrix(1, 0, 0, 1, 0, 0)" filter="url(#b)"><path d="M576,192a64,64,0,1,0-64-64A64,64,0,0,0,576,192ZM64,240a64,64,0,1,0,64,64,64,64,0,0,0-64-64Zm449.6-37.2-19.2-25.6-48,36,19.2,25.6ZM576,384a63.84,63.84,0,0,0-38.3,13l-96-57.6a109.91,109.91,0,0,0,6.3-35.5,111.944,111.944,0,0,0-112-112,108.639,108.639,0,0,0-24.4,2.9l-40.8-87.4A63.836,63.836,0,1,0,224,128c1.1,0,2.1-.3,3.2-.3l41,87.8C241.5,235.9,224,267.8,224,304a111.71,111.71,0,0,0,193.2,76.7L513,438.2A63.868,63.868,0,1,0,576,384ZM336,352a48,48,0,1,1,48-48A48,48,0,0,1,336,352ZM152,320h48V288H152Z" transform="translate(15.5 15.28)" stroke="#000" stroke-width="1" fill="url(#a)"/></g></svg>