<svg xmlns="http://www.w3.org/2000/svg" xmlns:xlink="http://www.w3.org/1999/xlink" width="671.004" height="543.002" viewBox="0 0 671.004 543.002">
  <defs>
    <filter id="construction-1" x="0" y="0" width="671.004" height="543.002" filterUnits="userSpaceOnUse">
      <feOffset input="SourceAlpha"/>
      <feGaussianBlur stdDeviation="5" result="blur"/>
      <feFlood/>
      <feComposite operator="in" in2="blur"/>
      <feComposite in="SourceGraphic"/>
    </filter>
  </defs>
  <g transform="matrix(1, 0, 0, 1, 0, 0)" filter="url(#construction-1)">
    <path id="construction-1-2" data-name="construction-1" d="M634.66,460.17,349.5,15.92c-13.62-21.23-45.38-21.23-59,0L5.34,460.17C-9.14,482.73,7.52,512,34.85,512h570.3c27.33,0,43.99-29.27,29.51-51.83ZM308,160a28,28,0,1,1-28,28,28,28,0,0,1,28-28Zm-4,272a16,16,0,0,1-32,0V399.23l-46.31-29.92L207.44,436.2A16,16,0,0,1,192,448a15.637,15.637,0,0,1-4.22-.56,16,16,0,0,1-11.24-19.64l29.75-109.11,83.06,53.67A31.91,31.91,0,0,1,304,399.23Zm48,16,12-29.94A16,16,0,0,1,378.83,408h35.64l-94.8-58.34a.125.125,0,0,1-.11-.07l-103.95-64a16,16,0,0,1-4.41-23.22l11.61-15.49a47.88,47.88,0,0,1,48.83-18l24.58,7.28c17.45,3.82,31.84,18.53,35.56,37.14L342.33,326,430,380l21.16-42.44a16,16,0,0,1,27.78-1.5L550.8,448Z" transform="translate(15.5 15.5)" fill="#fff" stroke="#000" stroke-width="1"/>
  </g>
</svg>
