<svg xmlns="http://www.w3.org/2000/svg" width="384.777" height="295" viewBox="0 0 384.777 295"><path d="M308,160a28,28,0,1,1-28,28,28,28,0,0,1,28-28Zm-4,272a16,16,0,0,1-32,0V399.23l-46.31-29.92L207.44,436.2A16,16,0,0,1,192,448a15.637,15.637,0,0,1-4.22-.56,16,16,0,0,1-11.24-19.64l29.75-109.11,83.06,53.67A31.91,31.91,0,0,1,304,399.23Zm48,16,12-29.94A16,16,0,0,1,378.83,408h35.64l-94.8-58.34a.125.125,0,0,1-.11-.07l-103.95-64a16,16,0,0,1-4.41-23.22l11.61-15.49a47.88,47.88,0,0,1,48.83-18l24.58,7.28c17.45,3.82,31.84,18.53,35.56,37.14L342.33,326,430,380l21.16-42.44a16,16,0,0,1,27.78-1.5L550.8,448Z" transform="translate(-172.429 -156.5)" fill="none" stroke="#fff" stroke-width="7"/></svg>