<svg xmlns="http://www.w3.org/2000/svg" xmlns:xlink="http://www.w3.org/1999/xlink" width="671" height="473.342" viewBox="0 0 671 473.342"><defs><radialGradient id="a" cx="0.5" cy="0.5" r="1.596" gradientUnits="objectBoundingBox"><stop offset="0" stop-color="#fff"/><stop offset="1" stop-color="gray"/></radialGradient><filter id="b" x="0" y="0" width="671" height="473.342" filterUnits="userSpaceOnUse"><feOffset input="SourceAlpha"/><feGaussianBlur stdDeviation="5" result="c"/><feFlood/><feComposite operator="in" in2="c"/><feComposite in="SourceGraphic"/></filter></defs><g transform="matrix(1, 0, 0, 1, 0, 0)" filter="url(#b)"><path d="M257.981,272.971,63.638,467.314a24,24,0,0,1-33.941,0L7.029,444.647a24,24,0,0,1-.04-33.9L161.011,256,6.99,101.255a24,24,0,0,1,.04-33.9L29.7,44.687a24,24,0,0,1,33.941,0L257.981,239.03a24,24,0,0,1,0,33.941ZM640,456V424a24,24,0,0,0-24-24H312a24,24,0,0,0-24,24v32a24,24,0,0,0,24,24H616A24,24,0,0,0,640,456Z" transform="translate(15.5 -22.16)" stroke="#000" stroke-width="1" fill="url(#a)"/></g></svg>