<svg xmlns="http://www.w3.org/2000/svg" xmlns:xlink="http://www.w3.org/1999/xlink" width="594" height="466" viewBox="0 0 594 466">
  <defs>
    <filter id="turntable" x="0" y="0" width="594" height="466" filterUnits="userSpaceOnUse">
      <feOffset input="SourceAlpha"/>
      <feGaussianBlur stdDeviation="3" result="blur"/>
      <feFlood/>
      <feComposite operator="in" in2="blur"/>
      <feComposite in="SourceGraphic"/>
    </filter>
  </defs>
  <g transform="matrix(1, 0, 0, 1, 0, 0)" filter="url(#turntable)">
    <path id="turntable-2" data-name="turntable" d="M224,224a32,32,0,1,0,32,32A32,32,0,0,0,224,224ZM512,32H64A64,64,0,0,0,0,96V416a64,64,0,0,0,64,64H512a64,64,0,0,0,64-64V96A64,64,0,0,0,512,32ZM224,416A160,160,0,1,1,384,256,160,160,0,0,1,224,416ZM512,267.82a64,64,0,0,1-6.761,28.631L486.31,334.31a16,16,0,0,1,7.16,21.46l-25.69,51.38a16,16,0,0,1-21.47,7.16L417.69,400a16,16,0,0,1-7.16-21.46l25.69-51.38A16,16,0,0,1,457.69,320l18.93-37.87A32,32,0,0,0,480,267.81V104a8,8,0,0,1,8-8h16a8,8,0,0,1,8,8Z" transform="translate(9 -23)" fill="#fff"/>
  </g>
</svg>
