<svg xmlns="http://www.w3.org/2000/svg" xmlns:xlink="http://www.w3.org/1999/xlink" width="498" height="466.019" viewBox="0 0 498 466.019">
  <defs>
    <radialGradient id="radial-gradient" cx="0.5" cy="0.5" r="0.5" gradientUnits="objectBoundingBox">
      <stop offset="0" stop-color="#333"/>
      <stop offset="1" stop-color="#212121"/>
    </radialGradient>
    <filter id="Path_4" x="0" y="0" width="306" height="466.019" filterUnits="userSpaceOnUse">
      <feOffset input="SourceAlpha"/>
      <feGaussianBlur stdDeviation="3" result="blur"/>
      <feFlood flood-color="red" flood-opacity="0.929"/>
      <feComposite operator="in" in2="blur"/>
      <feComposite in="SourceGraphic"/>
    </filter>
    <filter id="Path_5" x="341.752" y="106.262" width="92.248" height="253.484" filterUnits="userSpaceOnUse">
      <feOffset input="SourceAlpha"/>
      <feGaussianBlur stdDeviation="3" result="blur-2"/>
      <feFlood flood-color="red" flood-opacity="0.929"/>
      <feComposite operator="in" in2="blur-2"/>
      <feComposite in="SourceGraphic"/>
    </filter>
    <filter id="Path_6" x="386.868" y="61.134" width="111.132" height="343.732" filterUnits="userSpaceOnUse">
      <feOffset input="SourceAlpha"/>
      <feGaussianBlur stdDeviation="3" result="blur-3"/>
      <feFlood flood-color="red" flood-opacity="0.929"/>
      <feComposite operator="in" in2="blur-3"/>
      <feComposite in="SourceGraphic"/>
    </filter>
  </defs>
  <g id="Group_5" data-name="Group 5" transform="translate(9 -6.99)">
    <g transform="matrix(1, 0, 0, 1, -9, 6.99)" filter="url(#Path_4)">
      <path id="Path_4-2" data-name="Path 4" d="M278.944,17.577a15.951,15.951,0,0,0-16.928,1.92L106.368,144.009H32a32.053,32.053,0,0,0-32,32v128a32.032,32.032,0,0,0,32,32h74.368L261.984,460.521a16.023,16.023,0,0,0,16.96,1.888,15.968,15.968,0,0,0,9.056-14.4v-416A16.051,16.051,0,0,0,278.944,17.577Z" transform="translate(9 -6.99)" fill="url(#radial-gradient)"/>
    </g>
    <g transform="matrix(1, 0, 0, 1, -9, 6.99)" filter="url(#Path_5)">
      <path id="Path_5-2" data-name="Path 5" d="M368.992,126.857a16.009,16.009,0,0,0-22.5,22.784,127.625,127.625,0,0,1,0,180.736,15.986,15.986,0,1,0,22.5,22.72C399.328,323.241,416,283.049,416,240.009S399.328,156.777,368.992,126.857Z" transform="translate(9 -6.99)" fill="url(#radial-gradient)"/>
    </g>
    <g transform="matrix(1, 0, 0, 1, -9, 6.99)" filter="url(#Path_6)">
      <path id="Path_6-2" data-name="Path 6" d="M414.144,81.769a16.009,16.009,0,1,0-22.56,22.72,190.94,190.94,0,0,1,0,271.008,16.009,16.009,0,0,0,22.56,22.72,223,223,0,0,0,0-316.448Z" transform="translate(9 -6.99)" fill="url(#radial-gradient)"/>
    </g>
  </g>
</svg>
