<svg xmlns="http://www.w3.org/2000/svg" xmlns:xlink="http://www.w3.org/1999/xlink" width="670" height="472.342" viewBox="0 0 670 472.342">
  <defs>
    <filter id="terminal" x="0" y="0" width="670" height="472.342" filterUnits="userSpaceOnUse">
      <feOffset input="SourceAlpha"/>
      <feGaussianBlur stdDeviation="5" result="blur"/>
      <feFlood/>
      <feComposite operator="in" in2="blur"/>
      <feComposite in="SourceGraphic"/>
    </filter>
  </defs>
  <g transform="matrix(1, 0, 0, 1, 0, 0)" filter="url(#terminal)">
    <path id="terminal-2" data-name="terminal" d="M257.981,272.971,63.638,467.314a24,24,0,0,1-33.941,0L7.029,444.647a24,24,0,0,1-.04-33.9L161.011,256,6.99,101.255a24,24,0,0,1,.04-33.9L29.7,44.687a24,24,0,0,1,33.941,0L257.981,239.03a24,24,0,0,1,0,33.941ZM640,456V424a24,24,0,0,0-24-24H312a24,24,0,0,0-24,24v32a24,24,0,0,0,24,24H616A24,24,0,0,0,640,456Z" transform="translate(15 -22.66)" fill="#fff"/>
  </g>
</svg>
